<svg xmlns="http://www.w3.org/2000/svg" xmlns:xlink="http://www.w3.org/1999/xlink" width="1920" zoomAndPan="magnify" viewBox="0 0 1440 187.499995" height="250" preserveAspectRatio="xMidYMid meet" version="1.0"><defs><filter x="0%" y="0%" width="100%" height="100%" id="d335b35fa6"><feColorMatrix values="0 0 0 0 1 0 0 0 0 1 0 0 0 0 1 0 0 0 1 0" color-interpolation-filters="sRGB"/></filter><clipPath id="742a6373df"><path d="M 1.914062 119 L 153 119 L 153 187 L 1.914062 187 Z M 1.914062 119 " clip-rule="nonzero"/></clipPath><clipPath id="790d9b410a"><path d="M -8.105469 164.753906 L 107.640625 119.492188 L 152.902344 235.238281 L 37.15625 280.5 Z M -8.105469 164.753906 " clip-rule="nonzero"/></clipPath><clipPath id="8f73535056"><path d="M 0.914062 0.441406 L 151.953125 0.441406 L 151.953125 68 L 0.914062 68 Z M 0.914062 0.441406 " clip-rule="nonzero"/></clipPath><clipPath id="471e81080f"><path d="M -9.105469 45.753906 L 106.640625 0.492188 L 151.902344 116.238281 L 36.15625 161.5 Z M -9.105469 45.753906 " clip-rule="nonzero"/></clipPath><clipPath id="f9bb0138fd"><rect x="0" width="152" y="0" height="68"/></clipPath><clipPath id="1be75552e2"><path d="M 93 93 L 269 93 L 269 187 L 93 187 Z M 93 93 " clip-rule="nonzero"/></clipPath><clipPath id="4ecdd4542b"><path d="M 175.59375 93.503906 L 268.570312 175.96875 L 186.101562 268.949219 L 93.125 186.480469 Z M 175.59375 93.503906 " clip-rule="nonzero"/></clipPath><clipPath id="1bf5293665"><path d="M 0.113281 0.351562 L 175.804688 0.351562 L 175.804688 94 L 0.113281 94 Z M 0.113281 0.351562 " clip-rule="nonzero"/></clipPath><clipPath id="aede98802d"><path d="M 82.59375 0.503906 L 175.570312 82.96875 L 93.101562 175.949219 L 0.125 93.480469 Z M 82.59375 0.503906 " clip-rule="nonzero"/></clipPath><clipPath id="5df29691e5"><rect x="0" width="176" y="0" height="94"/></clipPath><clipPath id="7ea90262b4"><path d="M 216 121 L 361 121 L 361 187 L 216 187 Z M 216 121 " clip-rule="nonzero"/></clipPath><clipPath id="e6b9456699"><path d="M 237.828125 121.09375 L 360.347656 141.949219 L 339.492188 264.46875 L 216.972656 243.609375 Z M 237.828125 121.09375 " clip-rule="nonzero"/></clipPath><clipPath id="6dc9bed440"><path d="M 0.863281 0 L 144.480469 0 L 144.480469 66 L 0.863281 66 Z M 0.863281 0 " clip-rule="nonzero"/></clipPath><clipPath id="27039e0a86"><path d="M 21.828125 0.09375 L 144.347656 20.949219 L 123.492188 143.46875 L 0.972656 122.609375 Z M 21.828125 0.09375 " clip-rule="nonzero"/></clipPath><clipPath id="746a4045c1"><rect x="0" width="145" y="0" height="66"/></clipPath><mask id="158885221a"><g filter="url(#d335b35fa6)"><rect x="-144" width="1728" fill="#000000" y="-18.749999" height="224.999994" fill-opacity="0.2"/></g></mask><clipPath id="cac28f78af"><path d="M 0.335938 0.636719 L 126.957031 0.636719 L 126.957031 44.441406 L 0.335938 44.441406 Z M 0.335938 0.636719 " clip-rule="nonzero"/></clipPath><clipPath id="e294603787"><path d="M 4.214844 0.644531 L 126.730469 21.503906 L 122.867188 44.207031 L 0.347656 23.351562 Z M 4.214844 0.644531 " clip-rule="nonzero"/></clipPath><clipPath id="abd382f6d6"><path d="M 0.335938 0.636719 L 126.957031 0.636719 L 126.957031 44.441406 L 0.335938 44.441406 Z M 0.335938 0.636719 " clip-rule="nonzero"/></clipPath><clipPath id="822e5048e3"><path d="M 4.214844 0.644531 L 126.730469 21.503906 L 122.867188 44.207031 L 0.347656 23.351562 Z M 4.214844 0.644531 " clip-rule="nonzero"/></clipPath><clipPath id="7961ea5bba"><rect x="0" width="127" y="0" height="45"/></clipPath><clipPath id="2c246917d0"><rect x="0" width="127" y="0" height="45"/></clipPath><clipPath id="f84172715a"><path d="M 315 101 L 475 101 L 475 187 L 315 187 Z M 315 101 " clip-rule="nonzero"/></clipPath><clipPath id="3604371930"><path d="M 315.578125 143.816406 L 432.503906 101.699219 L 474.621094 218.625 L 357.695312 260.746094 Z M 315.578125 143.816406 " clip-rule="nonzero"/></clipPath><clipPath id="e324b14b64"><path d="M 0.480469 0.488281 L 159.652344 0.488281 L 159.652344 86 L 0.480469 86 Z M 0.480469 0.488281 " clip-rule="nonzero"/></clipPath><clipPath id="fe5fd67734"><path d="M 0.578125 42.816406 L 117.503906 0.699219 L 159.621094 117.625 L 42.695312 159.746094 Z M 0.578125 42.816406 " clip-rule="nonzero"/></clipPath><clipPath id="eb0fcf7c31"><rect x="0" width="160" y="0" height="86"/></clipPath><mask id="459096a0af"><g filter="url(#d335b35fa6)"><rect x="-144" width="1728" fill="#000000" y="-18.749999" height="224.999994" fill-opacity="0.2"/></g></mask><clipPath id="40abe42dd9"><path d="M 0.480469 0.488281 L 125.664062 0.488281 L 125.664062 65.355469 L 0.480469 65.355469 Z M 0.480469 0.488281 " clip-rule="nonzero"/></clipPath><clipPath id="1a65e9d808"><path d="M 0.578125 42.816406 L 117.503906 0.699219 L 125.59375 23.160156 L 8.667969 65.277344 Z M 0.578125 42.816406 " clip-rule="nonzero"/></clipPath><clipPath id="3d80aa9364"><path d="M 0.480469 0.488281 L 125.664062 0.488281 L 125.664062 65.355469 L 0.480469 65.355469 Z M 0.480469 0.488281 " clip-rule="nonzero"/></clipPath><clipPath id="3355f96956"><path d="M 0.578125 42.816406 L 117.503906 0.699219 L 125.59375 23.160156 L 8.667969 65.277344 Z M 0.578125 42.816406 " clip-rule="nonzero"/></clipPath><clipPath id="b023548e97"><rect x="0" width="126" y="0" height="66"/></clipPath><clipPath id="f8fe039afb"><rect x="0" width="126" y="0" height="66"/></clipPath><clipPath id="40029f3270"><path d="M 391 106 L 558 106 L 558 187 L 391 187 Z M 391 106 " clip-rule="nonzero"/></clipPath><clipPath id="ab0be2b262"><path d="M 446.480469 106.171875 L 557.871094 161.285156 L 502.757812 272.679688 L 391.363281 217.5625 Z M 446.480469 106.171875 " clip-rule="nonzero"/></clipPath><clipPath id="72940bf2e0"><path d="M 0.355469 0.0390625 L 166.953125 0.0390625 L 166.953125 81 L 0.355469 81 Z M 0.355469 0.0390625 " clip-rule="nonzero"/></clipPath><clipPath id="19c5a11e46"><path d="M 55.480469 0.171875 L 166.871094 55.285156 L 111.757812 166.679688 L 0.363281 111.5625 Z M 55.480469 0.171875 " clip-rule="nonzero"/></clipPath><clipPath id="c1563b0107"><rect x="0" width="167" y="0" height="81"/></clipPath><mask id="dfb95a75c2"><g filter="url(#d335b35fa6)"><rect x="-144" width="1728" fill="#000000" y="-18.749999" height="224.999994" fill-opacity="0.2"/></g></mask><clipPath id="fef0853db3"><path d="M 0.597656 0.0390625 L 121.953125 0.0390625 L 121.953125 75.4375 L 0.597656 75.4375 Z M 0.597656 0.0390625 " clip-rule="nonzero"/></clipPath><clipPath id="336be3db06"><path d="M 10.480469 0.171875 L 121.871094 55.285156 L 112.007812 75.226562 L 0.617188 20.109375 Z M 10.480469 0.171875 " clip-rule="nonzero"/></clipPath><clipPath id="ff6baa41b1"><path d="M 0.597656 0.0390625 L 121.953125 0.0390625 L 121.953125 75.4375 L 0.597656 75.4375 Z M 0.597656 0.0390625 " clip-rule="nonzero"/></clipPath><clipPath id="b32d7df9b8"><path d="M 10.480469 0.171875 L 121.871094 55.285156 L 112.007812 75.226562 L 0.617188 20.109375 Z M 10.480469 0.171875 " clip-rule="nonzero"/></clipPath><clipPath id="a290e7bd9f"><rect x="0" width="122" y="0" height="76"/></clipPath><clipPath id="2c17af9c47"><rect x="0" width="122" y="0" height="76"/></clipPath><mask id="78d521c9a3"><g filter="url(#d335b35fa6)"><rect x="-144" width="1728" fill="#000000" y="-18.749999" height="224.999994" fill-opacity="0.2"/></g></mask><clipPath id="b6be8b6b4b"><path d="M 1 0.351562 L 99 0.351562 L 99 94 L 1 94 Z M 1 0.351562 " clip-rule="nonzero"/></clipPath><clipPath id="489a3dd313"><path d="M 83.59375 0.5 L 98.835938 14.023438 L 16.367188 107 L 1.125 93.476562 Z M 83.59375 0.5 " clip-rule="nonzero"/></clipPath><clipPath id="c62625397b"><path d="M 0.113281 0.351562 L 98 0.351562 L 98 94 L 0.113281 94 Z M 0.113281 0.351562 " clip-rule="nonzero"/></clipPath><clipPath id="b0c535d8fd"><path d="M 82.59375 0.5 L 97.835938 14.023438 L 15.367188 107 L 0.125 93.476562 Z M 82.59375 0.5 " clip-rule="nonzero"/></clipPath><clipPath id="b095e03614"><rect x="0" width="98" y="0" height="94"/></clipPath><clipPath id="49f3f7a59c"><rect x="0" width="100" y="0" height="94"/></clipPath><clipPath id="bc73e8d156"><path d="M 1.914062 119 L 115 119 L 115 185 L 1.914062 185 Z M 1.914062 119 " clip-rule="nonzero"/></clipPath><mask id="e1ac290132"><g filter="url(#d335b35fa6)"><rect x="-144" width="1728" fill="#000000" y="-18.749999" height="224.999994" fill-opacity="0.2"/></g></mask><clipPath id="0967c72e8d"><path d="M 0.914062 0.441406 L 113.894531 0.441406 L 113.894531 65.308594 L 0.914062 65.308594 Z M 0.914062 0.441406 " clip-rule="nonzero"/></clipPath><clipPath id="c6c6beb13b"><path d="M -9.730469 45.753906 L 106.015625 0.492188 L 113.59375 19.871094 L -2.152344 65.132812 Z M -9.730469 45.753906 " clip-rule="nonzero"/></clipPath><clipPath id="7aadd1be3b"><path d="M 0.914062 0.441406 L 113.652344 0.441406 L 113.652344 65.308594 L 0.914062 65.308594 Z M 0.914062 0.441406 " clip-rule="nonzero"/></clipPath><clipPath id="75c2054b1e"><path d="M -9.730469 45.753906 L 106.015625 0.492188 L 113.59375 19.871094 L -2.152344 65.132812 Z M -9.730469 45.753906 " clip-rule="nonzero"/></clipPath><clipPath id="4941959806"><rect x="0" width="114" y="0" height="66"/></clipPath><clipPath id="5371c43f0c"><rect x="0" width="114" y="0" height="66"/></clipPath><clipPath id="7a382528a8"><path d="M 475 99 L 637 99 L 637 187 L 475 187 Z M 475 99 " clip-rule="nonzero"/></clipPath><clipPath id="3eaa4db202"><path d="M 475.246094 144.996094 L 590.992188 99.738281 L 636.253906 215.484375 L 520.507812 260.746094 Z M 475.246094 144.996094 " clip-rule="nonzero"/></clipPath><clipPath id="60a0c55425"><path d="M 0.132812 0.574219 L 161.460938 0.574219 L 161.460938 88 L 0.132812 88 Z M 0.132812 0.574219 " clip-rule="nonzero"/></clipPath><clipPath id="155fc1aad2"><path d="M 0.246094 45.996094 L 115.992188 0.738281 L 161.253906 116.484375 L 45.507812 161.746094 Z M 0.246094 45.996094 " clip-rule="nonzero"/></clipPath><clipPath id="a5029fd051"><rect x="0" width="162" y="0" height="88"/></clipPath><clipPath id="b10c3a60e6"><path d="M 576 73 L 752 73 L 752 187 L 576 187 Z M 576 73 " clip-rule="nonzero"/></clipPath><clipPath id="b230398040"><path d="M 658.941406 73.746094 L 751.917969 156.214844 L 669.449219 249.191406 L 576.472656 166.722656 Z M 658.941406 73.746094 " clip-rule="nonzero"/></clipPath><clipPath id="e5a2d6adf5"><path d="M 0.382812 0.722656 L 176 0.722656 L 176 114 L 0.382812 114 Z M 0.382812 0.722656 " clip-rule="nonzero"/></clipPath><clipPath id="ec66bcd3d0"><path d="M 82.941406 0.746094 L 175.917969 83.214844 L 93.449219 176.191406 L 0.472656 93.722656 Z M 82.941406 0.746094 " clip-rule="nonzero"/></clipPath><clipPath id="e73b94d910"><rect x="0" width="176" y="0" height="114"/></clipPath><clipPath id="404869ba9b"><path d="M 700 101 L 844 101 L 844 187 L 700 187 Z M 700 101 " clip-rule="nonzero"/></clipPath><clipPath id="e7c6527595"><path d="M 721.179688 101.335938 L 843.699219 122.191406 L 822.839844 244.710938 L 700.320312 223.855469 Z M 721.179688 101.335938 " clip-rule="nonzero"/></clipPath><clipPath id="316bb7ad96"><path d="M 0.132812 0.25 L 143.75 0.25 L 143.75 86 L 0.132812 86 Z M 0.132812 0.25 " clip-rule="nonzero"/></clipPath><clipPath id="eb7f758ed8"><path d="M 21.179688 0.335938 L 143.699219 21.191406 L 122.839844 143.710938 L 0.320312 122.855469 Z M 21.179688 0.335938 " clip-rule="nonzero"/></clipPath><clipPath id="f96ba4eca3"><rect x="0" width="144" y="0" height="86"/></clipPath><mask id="854a3deb2d"><g filter="url(#d335b35fa6)"><rect x="-144" width="1728" fill="#000000" y="-18.749999" height="224.999994" fill-opacity="0.2"/></g></mask><clipPath id="0139202d1a"><path d="M 0.605469 0.769531 L 127.230469 0.769531 L 127.230469 44.574219 L 0.605469 44.574219 Z M 0.605469 0.769531 " clip-rule="nonzero"/></clipPath><clipPath id="630f21bd29"><path d="M 4.5625 0.890625 L 127.082031 21.746094 L 123.214844 44.453125 L 0.699219 23.59375 Z M 4.5625 0.890625 " clip-rule="nonzero"/></clipPath><clipPath id="6675de032f"><path d="M 0.605469 0.769531 L 127.230469 0.769531 L 127.230469 44.574219 L 0.605469 44.574219 Z M 0.605469 0.769531 " clip-rule="nonzero"/></clipPath><clipPath id="e2d999243b"><path d="M 4.5625 0.890625 L 127.082031 21.746094 L 123.214844 44.453125 L 0.699219 23.59375 Z M 4.5625 0.890625 " clip-rule="nonzero"/></clipPath><clipPath id="0d24c26bf1"><rect x="0" width="128" y="0" height="45"/></clipPath><clipPath id="3b2bbafd50"><rect x="0" width="128" y="0" height="45"/></clipPath><clipPath id="42eec3f423"><path d="M 798 81 L 958 81 L 958 187 L 798 187 Z M 798 81 " clip-rule="nonzero"/></clipPath><clipPath id="14f5bf7776"><path d="M 798.925781 124.0625 L 915.851562 81.941406 L 957.972656 198.871094 L 841.042969 240.988281 Z M 798.925781 124.0625 " clip-rule="nonzero"/></clipPath><clipPath id="e093eaf4bb"><path d="M 0.75 0.863281 L 160 0.863281 L 160 106 L 0.75 106 Z M 0.75 0.863281 " clip-rule="nonzero"/></clipPath><clipPath id="06d54bbf4e"><path d="M 0.925781 43.0625 L 117.851562 0.941406 L 159.972656 117.871094 L 43.042969 159.988281 Z M 0.925781 43.0625 " clip-rule="nonzero"/></clipPath><clipPath id="b7f3164d99"><rect x="0" width="160" y="0" height="106"/></clipPath><mask id="5d37bb7475"><g filter="url(#d335b35fa6)"><rect x="-144" width="1728" fill="#000000" y="-18.749999" height="224.999994" fill-opacity="0.2"/></g></mask><clipPath id="ef485eeacb"><path d="M 0.75 0.863281 L 126 0.863281 L 126 65.730469 L 0.75 65.730469 Z M 0.75 0.863281 " clip-rule="nonzero"/></clipPath><clipPath id="5cd98abf4c"><path d="M 0.925781 43.0625 L 117.851562 0.941406 L 125.941406 23.402344 L 9.015625 65.519531 Z M 0.925781 43.0625 " clip-rule="nonzero"/></clipPath><clipPath id="4a60118767"><path d="M 0.75 0.863281 L 126 0.863281 L 126 65.730469 L 0.75 65.730469 Z M 0.75 0.863281 " clip-rule="nonzero"/></clipPath><clipPath id="ee59db43d1"><path d="M 0.925781 43.0625 L 117.851562 0.941406 L 125.941406 23.402344 L 9.015625 65.519531 Z M 0.925781 43.0625 " clip-rule="nonzero"/></clipPath><clipPath id="e8c21e9dcc"><rect x="0" width="126" y="0" height="66"/></clipPath><clipPath id="e8f81b1071"><rect x="0" width="127" y="0" height="66"/></clipPath><clipPath id="c9f85137ad"><path d="M 874 86 L 1042 86 L 1042 187 L 874 187 Z M 874 86 " clip-rule="nonzero"/></clipPath><clipPath id="775a6c3f2b"><path d="M 929.828125 86.414062 L 1041.222656 141.53125 L 986.105469 252.921875 L 874.714844 197.804688 Z M 929.828125 86.414062 " clip-rule="nonzero"/></clipPath><clipPath id="55478efff1"><path d="M 0.628906 0.410156 L 167.222656 0.410156 L 167.222656 101 L 0.628906 101 Z M 0.628906 0.410156 " clip-rule="nonzero"/></clipPath><clipPath id="166b7ca1fc"><path d="M 55.828125 0.414062 L 167.222656 55.53125 L 112.105469 166.921875 L 0.714844 111.804688 Z M 55.828125 0.414062 " clip-rule="nonzero"/></clipPath><clipPath id="f6112a01f7"><rect x="0" width="168" y="0" height="101"/></clipPath><mask id="31ef667214"><g filter="url(#d335b35fa6)"><rect x="-144" width="1728" fill="#000000" y="-18.749999" height="224.999994" fill-opacity="0.2"/></g></mask><clipPath id="0f8839ce14"><path d="M 0.867188 0.410156 L 122.460938 0.410156 L 122.460938 75.570312 L 0.867188 75.570312 Z M 0.867188 0.410156 " clip-rule="nonzero"/></clipPath><clipPath id="cda3c1bf85"><path d="M 10.832031 0.414062 L 122.222656 55.53125 L 112.355469 75.46875 L 0.964844 20.351562 Z M 10.832031 0.414062 " clip-rule="nonzero"/></clipPath><clipPath id="c79be8dd2c"><path d="M 0.867188 0.410156 L 122.222656 0.410156 L 122.222656 75.570312 L 0.867188 75.570312 Z M 0.867188 0.410156 " clip-rule="nonzero"/></clipPath><clipPath id="ee0577c911"><path d="M 10.832031 0.414062 L 122.222656 55.53125 L 112.355469 75.46875 L 0.964844 20.351562 Z M 10.832031 0.414062 " clip-rule="nonzero"/></clipPath><clipPath id="546c622c24"><rect x="0" width="123" y="0" height="76"/></clipPath><clipPath id="2c0874e85b"><rect x="0" width="123" y="0" height="76"/></clipPath><mask id="02d8817dd7"><g filter="url(#d335b35fa6)"><rect x="-144" width="1728" fill="#000000" y="-18.749999" height="224.999994" fill-opacity="0.2"/></g></mask><clipPath id="2bdc95f4f7"><path d="M 0.382812 0.722656 L 98.28125 0.722656 L 98.28125 107.480469 L 0.382812 107.480469 Z M 0.382812 0.722656 " clip-rule="nonzero"/></clipPath><clipPath id="95588c5194"><path d="M 82.941406 0.746094 L 98.1875 14.265625 L 15.71875 107.242188 L 0.472656 93.722656 Z M 82.941406 0.746094 " clip-rule="nonzero"/></clipPath><clipPath id="f965a7e793"><path d="M 0.382812 0.722656 L 98.28125 0.722656 L 98.28125 107.480469 L 0.382812 107.480469 Z M 0.382812 0.722656 " clip-rule="nonzero"/></clipPath><clipPath id="4527fa434d"><path d="M 82.941406 0.746094 L 98.1875 14.265625 L 15.71875 107.242188 L 0.472656 93.722656 Z M 82.941406 0.746094 " clip-rule="nonzero"/></clipPath><clipPath id="16bd894288"><rect x="0" width="99" y="0" height="108"/></clipPath><clipPath id="6e048431d0"><rect x="0" width="99" y="0" height="108"/></clipPath><mask id="22ca7a7d47"><g filter="url(#d335b35fa6)"><rect x="-144" width="1728" fill="#000000" y="-18.749999" height="224.999994" fill-opacity="0.2"/></g></mask><clipPath id="d2338b508a"><path d="M 0.414062 0.574219 L 124 0.574219 L 124 65.441406 L 0.414062 65.441406 Z M 0.414062 0.574219 " clip-rule="nonzero"/></clipPath><clipPath id="b8dddeb916"><path d="M 0.621094 46 L 116.367188 0.738281 L 123.945312 20.113281 L 8.199219 65.375 Z M 0.621094 46 " clip-rule="nonzero"/></clipPath><clipPath id="33c57925e0"><path d="M 0.414062 0.574219 L 124 0.574219 L 124 65.441406 L 0.414062 65.441406 Z M 0.414062 0.574219 " clip-rule="nonzero"/></clipPath><clipPath id="7e065a0570"><path d="M 0.621094 46 L 116.367188 0.738281 L 123.945312 20.113281 L 8.199219 65.375 Z M 0.621094 46 " clip-rule="nonzero"/></clipPath><clipPath id="251961dbe0"><rect x="0" width="124" y="0" height="66"/></clipPath><clipPath id="f571b945ce"><rect x="0" width="125" y="0" height="66"/></clipPath><clipPath id="da6c07f1ce"><path d="M 950 107 L 1112 107 L 1112 187 L 950 187 Z M 950 107 " clip-rule="nonzero"/></clipPath><clipPath id="832c494ab7"><path d="M 950.746094 153.199219 L 1066.492188 107.9375 L 1111.753906 223.683594 L 996.007812 268.945312 Z M 950.746094 153.199219 " clip-rule="nonzero"/></clipPath><clipPath id="40ed5686ca"><path d="M 0.746094 0.710938 L 161.835938 0.710938 L 161.835938 80 L 0.746094 80 Z M 0.746094 0.710938 " clip-rule="nonzero"/></clipPath><clipPath id="2d9bac9742"><path d="M 0.746094 46.199219 L 116.492188 0.9375 L 161.753906 116.683594 L 46.007812 161.945312 Z M 0.746094 46.199219 " clip-rule="nonzero"/></clipPath><clipPath id="9ff6147cb0"><rect x="0" width="162" y="0" height="80"/></clipPath><clipPath id="66fadc97bc"><path d="M 1051 81 L 1228 81 L 1228 187 L 1051 187 Z M 1051 81 " clip-rule="nonzero"/></clipPath><clipPath id="080bc2a592"><path d="M 1134.445312 81.945312 L 1227.421875 164.414062 L 1144.953125 257.390625 L 1051.976562 174.921875 Z M 1134.445312 81.945312 " clip-rule="nonzero"/></clipPath><clipPath id="241f536cb9"><path d="M 0.753906 0.863281 L 176.445312 0.863281 L 176.445312 106 L 0.753906 106 Z M 0.753906 0.863281 " clip-rule="nonzero"/></clipPath><clipPath id="ec6d6d308f"><path d="M 83.445312 0.945312 L 176.421875 83.414062 L 93.953125 176.390625 L 0.976562 93.921875 Z M 83.445312 0.945312 " clip-rule="nonzero"/></clipPath><clipPath id="a85b316778"><rect x="0" width="177" y="0" height="106"/></clipPath><clipPath id="da7ff62617"><path d="M 1175 109 L 1320 109 L 1320 187 L 1175 187 Z M 1175 109 " clip-rule="nonzero"/></clipPath><clipPath id="3e36298a10"><path d="M 1196.679688 109.535156 L 1319.199219 130.394531 L 1298.34375 252.910156 L 1175.824219 232.054688 Z M 1196.679688 109.535156 " clip-rule="nonzero"/></clipPath><clipPath id="73c0a87360"><path d="M 0.746094 0.386719 L 144.363281 0.386719 L 144.363281 78 L 0.746094 78 Z M 0.746094 0.386719 " clip-rule="nonzero"/></clipPath><clipPath id="3056fd21c9"><path d="M 21.679688 0.535156 L 144.199219 21.394531 L 123.34375 143.910156 L 0.824219 123.054688 Z M 21.679688 0.535156 " clip-rule="nonzero"/></clipPath><clipPath id="a638021284"><rect x="0" width="145" y="0" height="78"/></clipPath><mask id="26b48ca8e1"><g filter="url(#d335b35fa6)"><rect x="-144" width="1728" fill="#000000" y="-18.749999" height="224.999994" fill-opacity="0.2"/></g></mask><clipPath id="b9543fd0df"><path d="M 1 1 L 127.839844 1 L 127.839844 44.710938 L 1 44.710938 Z M 1 1 " clip-rule="nonzero"/></clipPath><clipPath id="4b3a575161"><path d="M 5.066406 1.089844 L 127.582031 21.945312 L 123.71875 44.652344 L 1.199219 23.796875 Z M 5.066406 1.089844 " clip-rule="nonzero"/></clipPath><clipPath id="0ee2ea07b4"><path d="M 0 0 L 126.601562 0 L 126.601562 43.710938 L 0 43.710938 Z M 0 0 " clip-rule="nonzero"/></clipPath><clipPath id="1afc7ebc87"><path d="M 4.066406 0.0898438 L 126.582031 20.945312 L 122.71875 43.652344 L 0.199219 22.796875 Z M 4.066406 0.0898438 " clip-rule="nonzero"/></clipPath><clipPath id="343ba206e2"><rect x="0" width="127" y="0" height="44"/></clipPath><clipPath id="673d27727b"><rect x="0" width="128" y="0" height="45"/></clipPath><clipPath id="29200d0556"><path d="M 1274 90 L 1434 90 L 1434 187 L 1274 187 Z M 1274 90 " clip-rule="nonzero"/></clipPath><clipPath id="d7577e1175"><path d="M 1274.429688 132.261719 L 1391.355469 90.144531 L 1433.472656 207.070312 L 1316.546875 249.1875 Z M 1274.429688 132.261719 " clip-rule="nonzero"/></clipPath><clipPath id="d1abc5668f"><path d="M 0.363281 0 L 159.539062 0 L 159.539062 97 L 0.363281 97 Z M 0.363281 0 " clip-rule="nonzero"/></clipPath><clipPath id="be7cf55726"><path d="M 0.429688 42.261719 L 117.355469 0.144531 L 159.472656 117.070312 L 42.546875 159.1875 Z M 0.429688 42.261719 " clip-rule="nonzero"/></clipPath><clipPath id="b07a9640c4"><rect x="0" width="160" y="0" height="97"/></clipPath><mask id="df3b4f4aca"><g filter="url(#d335b35fa6)"><rect x="-144" width="1728" fill="#000000" y="-18.749999" height="224.999994" fill-opacity="0.2"/></g></mask><clipPath id="1c564b6ea6"><path d="M 0.363281 0 L 125.546875 0 L 125.546875 64.867188 L 0.363281 64.867188 Z M 0.363281 0 " clip-rule="nonzero"/></clipPath><clipPath id="9c37d9a492"><path d="M 0.429688 42.261719 L 117.355469 0.144531 L 125.445312 22.601562 L 8.519531 64.722656 Z M 0.429688 42.261719 " clip-rule="nonzero"/></clipPath><clipPath id="ba0fd62b76"><path d="M 0.363281 0 L 125.546875 0 L 125.546875 64.867188 L 0.363281 64.867188 Z M 0.363281 0 " clip-rule="nonzero"/></clipPath><clipPath id="2ea333cfb5"><path d="M 0.429688 42.261719 L 117.355469 0.144531 L 125.445312 22.601562 L 8.519531 64.722656 Z M 0.429688 42.261719 " clip-rule="nonzero"/></clipPath><clipPath id="b5330a68fb"><rect x="0" width="126" y="0" height="65"/></clipPath><clipPath id="e760ee8c8f"><rect x="0" width="126" y="0" height="65"/></clipPath><clipPath id="4b567b0a39"><path d="M 1350 94 L 1438.085938 94 L 1438.085938 187 L 1350 187 Z M 1350 94 " clip-rule="nonzero"/></clipPath><clipPath id="8fa626ce41"><path d="M 1405.332031 94.617188 L 1516.722656 149.730469 L 1461.609375 261.121094 L 1350.214844 206.007812 Z M 1405.332031 94.617188 " clip-rule="nonzero"/></clipPath><clipPath id="2678db0621"><path d="M 0 0.546875 L 88.085938 0.546875 L 88.085938 93 L 0 93 Z M 0 0.546875 " clip-rule="nonzero"/></clipPath><clipPath id="1c088b5ce0"><path d="M 55.332031 0.617188 L 166.722656 55.730469 L 111.609375 167.121094 L 0.214844 112.007812 Z M 55.332031 0.617188 " clip-rule="nonzero"/></clipPath><clipPath id="50ff4fd595"><rect x="0" width="89" y="0" height="93"/></clipPath><clipPath id="d7ed5c1ff0"><path d="M 1395 94 L 1438.085938 94 L 1438.085938 170 L 1395 170 Z M 1395 94 " clip-rule="nonzero"/></clipPath><mask id="d0a1326933"><g filter="url(#d335b35fa6)"><rect x="-144" width="1728" fill="#000000" y="-18.749999" height="224.999994" fill-opacity="0.2"/></g></mask><clipPath id="77d9980452"><path d="M 0.238281 0.546875 L 43.085938 0.546875 L 43.085938 75.707031 L 0.238281 75.707031 Z M 0.238281 0.546875 " clip-rule="nonzero"/></clipPath><clipPath id="5d750c15a6"><path d="M 10.332031 0.617188 L 121.722656 55.730469 L 111.859375 75.667969 L 0.46875 20.554688 Z M 10.332031 0.617188 " clip-rule="nonzero"/></clipPath><clipPath id="c9deb14ee7"><path d="M 0.238281 0.546875 L 43.085938 0.546875 L 43.085938 75.707031 L 0.238281 75.707031 Z M 0.238281 0.546875 " clip-rule="nonzero"/></clipPath><clipPath id="05f5ea2681"><path d="M 10.332031 0.617188 L 121.722656 55.730469 L 111.859375 75.667969 L 0.46875 20.554688 Z M 10.332031 0.617188 " clip-rule="nonzero"/></clipPath><clipPath id="b9196fb507"><rect x="0" width="44" y="0" height="76"/></clipPath><clipPath id="ccc10b1e91"><rect x="0" width="44" y="0" height="76"/></clipPath><mask id="629eadfc63"><g filter="url(#d335b35fa6)"><rect x="-144" width="1728" fill="#000000" y="-18.749999" height="224.999994" fill-opacity="0.2"/></g></mask><clipPath id="88dde85c58"><path d="M 0.753906 0.863281 L 98.894531 0.863281 L 98.894531 106 L 0.753906 106 Z M 0.753906 0.863281 " clip-rule="nonzero"/></clipPath><clipPath id="0857e6c80d"><path d="M 83.445312 0.945312 L 98.6875 14.464844 L 16.21875 107.441406 L 0.976562 93.921875 Z M 83.445312 0.945312 " clip-rule="nonzero"/></clipPath><clipPath id="485adc9a53"><path d="M 1 0.863281 L 98.894531 0.863281 L 98.894531 106 L 1 106 Z M 1 0.863281 " clip-rule="nonzero"/></clipPath><clipPath id="a8c0be5a09"><path d="M 83.445312 0.945312 L 98.6875 14.464844 L 16.21875 107.441406 L 0.976562 93.921875 Z M 83.445312 0.945312 " clip-rule="nonzero"/></clipPath><clipPath id="22e01f33c7"><rect x="0" width="99" y="0" height="106"/></clipPath><clipPath id="ce6dbe4a12"><rect x="0" width="99" y="0" height="106"/></clipPath><mask id="219e0d1fd5"><g filter="url(#d335b35fa6)"><rect x="-144" width="1728" fill="#000000" y="-18.749999" height="224.999994" fill-opacity="0.2"/></g></mask><clipPath id="b8d2c6438d"><path d="M 0.0273438 0.710938 L 123.539062 0.710938 L 123.539062 65.578125 L 0.0273438 65.578125 Z M 0.0273438 0.710938 " clip-rule="nonzero"/></clipPath><clipPath id="aae5385b6a"><path d="M 0.121094 46.199219 L 115.867188 0.9375 L 123.445312 20.316406 L 7.699219 65.574219 Z M 0.121094 46.199219 " clip-rule="nonzero"/></clipPath><clipPath id="fb7b838947"><path d="M 0.0273438 0.710938 L 123.539062 0.710938 L 123.539062 65.578125 L 0.0273438 65.578125 Z M 0.0273438 0.710938 " clip-rule="nonzero"/></clipPath><clipPath id="da2262e886"><path d="M 0.121094 46.199219 L 115.867188 0.9375 L 123.445312 20.316406 L 7.699219 65.574219 Z M 0.121094 46.199219 " clip-rule="nonzero"/></clipPath><clipPath id="315dbbfcc5"><rect x="0" width="124" y="0" height="66"/></clipPath><clipPath id="1519d37627"><rect x="0" width="124" y="0" height="66"/></clipPath></defs><g clip-path="url(#742a6373df)"><g clip-path="url(#790d9b410a)"><g transform="matrix(1, 0, 0, 1, 1, 119)"><g clip-path="url(#f9bb0138fd)"><g clip-path="url(#8f73535056)"><g clip-path="url(#471e81080f)"><path fill="#ffe566" d="M -9.105469 45.753906 L 106.640625 0.492188 L 151.902344 116.238281 L 36.15625 161.5 Z M -9.105469 45.753906 " fill-opacity="1" fill-rule="nonzero"/></g></g></g></g></g></g><g clip-path="url(#1be75552e2)"><g clip-path="url(#4ecdd4542b)"><g transform="matrix(1, 0, 0, 1, 93, 93)"><g clip-path="url(#5df29691e5)"><g clip-path="url(#1bf5293665)"><g clip-path="url(#aede98802d)"><path fill="#ff6666" d="M 82.59375 0.503906 L 175.570312 82.96875 L 93.101562 175.949219 L 0.125 93.480469 Z M 82.59375 0.503906 " fill-opacity="1" fill-rule="nonzero"/></g></g></g></g></g></g><g clip-path="url(#7ea90262b4)"><g clip-path="url(#e6b9456699)"><g transform="matrix(1, 0, 0, 1, 216, 121)"><g clip-path="url(#746a4045c1)"><g clip-path="url(#6dc9bed440)"><g clip-path="url(#27039e0a86)"><path fill="#66ffac" d="M 21.828125 0.09375 L 144.347656 20.949219 L 123.492188 143.46875 L 0.972656 122.609375 Z M 21.828125 0.09375 " fill-opacity="1" fill-rule="nonzero"/></g></g></g></g></g></g><g mask="url(#158885221a)"><g transform="matrix(1, 0, 0, 1, 234, 120)"><g clip-path="url(#2c246917d0)"><g clip-path="url(#cac28f78af)"><g clip-path="url(#e294603787)"><g transform="matrix(1, 0, 0, 1, -0.000000000000028422, -0.000000000000028422)"><g clip-path="url(#7961ea5bba)"><g clip-path="url(#abd382f6d6)"><g clip-path="url(#822e5048e3)"><path fill="#000000" d="M 4.214844 0.644531 L 126.699219 21.496094 L 122.832031 44.203125 L 0.347656 23.351562 Z M 4.214844 0.644531 " fill-opacity="1" fill-rule="nonzero"/></g></g></g></g></g></g></g></g></g><g clip-path="url(#f84172715a)"><g clip-path="url(#3604371930)"><g transform="matrix(1, 0, 0, 1, 315, 101)"><g clip-path="url(#eb0fcf7c31)"><g clip-path="url(#e324b14b64)"><g clip-path="url(#fe5fd67734)"><path fill="#66bfff" d="M 0.578125 42.816406 L 117.503906 0.699219 L 159.621094 117.625 L 42.695312 159.746094 Z M 0.578125 42.816406 " fill-opacity="1" fill-rule="nonzero"/></g></g></g></g></g></g><g mask="url(#459096a0af)"><g transform="matrix(1, 0, 0, 1, 315, 101)"><g clip-path="url(#f8fe039afb)"><g clip-path="url(#40abe42dd9)"><g clip-path="url(#1a65e9d808)"><g transform="matrix(1, 0, 0, 1, -0.000000000000056843, -0.000000000000028422)"><g clip-path="url(#b023548e97)"><g clip-path="url(#3d80aa9364)"><g clip-path="url(#3355f96956)"><path fill="#000000" d="M 0.578125 42.816406 L 117.523438 0.691406 L 125.613281 23.152344 L 8.667969 65.277344 Z M 0.578125 42.816406 " fill-opacity="1" fill-rule="nonzero"/></g></g></g></g></g></g></g></g></g><g clip-path="url(#40029f3270)"><g clip-path="url(#ab0be2b262)"><g transform="matrix(1, 0, 0, 1, 391, 106)"><g clip-path="url(#c1563b0107)"><g clip-path="url(#72940bf2e0)"><g clip-path="url(#19c5a11e46)"><path fill="#a566ff" d="M 55.480469 0.171875 L 166.871094 55.285156 L 111.757812 166.679688 L 0.363281 111.5625 Z M 55.480469 0.171875 " fill-opacity="1" fill-rule="nonzero"/></g></g></g></g></g></g><g mask="url(#dfb95a75c2)"><g transform="matrix(1, 0, 0, 1, 436, 106)"><g clip-path="url(#2c17af9c47)"><g clip-path="url(#fef0853db3)"><g clip-path="url(#336be3db06)"><g transform="matrix(1, 0, 0, 1, -0.000000000000113687, -0.000000000000028422)"><g clip-path="url(#a290e7bd9f)"><g clip-path="url(#ff6baa41b1)"><g clip-path="url(#b32d7df9b8)"><path fill="#000000" d="M 10.480469 0.171875 L 121.851562 55.277344 L 111.988281 75.214844 L 0.617188 20.109375 Z M 10.480469 0.171875 " fill-opacity="1" fill-rule="nonzero"/></g></g></g></g></g></g></g></g></g><g mask="url(#78d521c9a3)"><g transform="matrix(1, 0, 0, 1, 92, 93)"><g clip-path="url(#49f3f7a59c)"><g clip-path="url(#b6be8b6b4b)"><g clip-path="url(#489a3dd313)"><g transform="matrix(1, 0, 0, 1, 1, -0.000000000000014211)"><g clip-path="url(#b095e03614)"><g clip-path="url(#c62625397b)"><g clip-path="url(#b0c535d8fd)"><path fill="#000000" d="M 82.59375 0.5 L 97.835938 14.023438 L 15.390625 106.972656 L 0.148438 93.453125 Z M 82.59375 0.5 " fill-opacity="1" fill-rule="nonzero"/></g></g></g></g></g></g></g></g></g><g clip-path="url(#bc73e8d156)"><g mask="url(#e1ac290132)"><g transform="matrix(1, 0, 0, 1, 1, 119)"><g clip-path="url(#5371c43f0c)"><g clip-path="url(#0967c72e8d)"><g clip-path="url(#c6c6beb13b)"><g transform="matrix(1, 0, 0, 1, 0, -0.000000000000028422)"><g clip-path="url(#4941959806)"><g clip-path="url(#7aadd1be3b)"><g clip-path="url(#75c2054b1e)"><path fill="#000000" d="M -9.730469 45.753906 L 106.003906 0.496094 L 113.582031 19.875 L -2.152344 65.132812 Z M -9.730469 45.753906 " fill-opacity="1" fill-rule="nonzero"/></g></g></g></g></g></g></g></g></g></g><g clip-path="url(#7a382528a8)"><g clip-path="url(#3eaa4db202)"><g transform="matrix(1, 0, 0, 1, 475, 99)"><g clip-path="url(#a5029fd051)"><g clip-path="url(#60a0c55425)"><g clip-path="url(#155fc1aad2)"><path fill="#ffa666" d="M 0.246094 45.996094 L 115.992188 0.738281 L 161.253906 116.484375 L 45.507812 161.746094 Z M 0.246094 45.996094 " fill-opacity="1" fill-rule="nonzero"/></g></g></g></g></g></g><g clip-path="url(#b10c3a60e6)"><g clip-path="url(#b230398040)"><g transform="matrix(1, 0, 0, 1, 576, 73)"><g clip-path="url(#e73b94d910)"><g clip-path="url(#e5a2d6adf5)"><g clip-path="url(#ec66bcd3d0)"><path fill="#fc66ff" d="M 82.941406 0.746094 L 175.917969 83.214844 L 93.449219 176.191406 L 0.472656 93.722656 Z M 82.941406 0.746094 " fill-opacity="1" fill-rule="nonzero"/></g></g></g></g></g></g><g clip-path="url(#404869ba9b)"><g clip-path="url(#e7c6527595)"><g transform="matrix(1, 0, 0, 1, 700, 101)"><g clip-path="url(#f96ba4eca3)"><g clip-path="url(#316bb7ad96)"><g clip-path="url(#eb7f758ed8)"><path fill="#6e66ff" d="M 21.179688 0.335938 L 143.699219 21.191406 L 122.839844 143.710938 L 0.320312 122.855469 Z M 21.179688 0.335938 " fill-opacity="1" fill-rule="nonzero"/></g></g></g></g></g></g><g mask="url(#854a3deb2d)"><g transform="matrix(1, 0, 0, 1, 717, 100)"><g clip-path="url(#3b2bbafd50)"><g clip-path="url(#0139202d1a)"><g clip-path="url(#630f21bd29)"><g transform="matrix(1, 0, 0, 1, -0.000000000000113687, -0.000000000000028422)"><g clip-path="url(#0d24c26bf1)"><g clip-path="url(#6675de032f)"><g clip-path="url(#e2d999243b)"><path fill="#000000" d="M 4.5625 0.890625 L 127.046875 21.742188 L 123.183594 44.445312 L 0.699219 23.59375 Z M 4.5625 0.890625 " fill-opacity="1" fill-rule="nonzero"/></g></g></g></g></g></g></g></g></g><g clip-path="url(#42eec3f423)"><g clip-path="url(#14f5bf7776)"><g transform="matrix(1, 0, 0, 1, 798, 81)"><g clip-path="url(#b7f3164d99)"><g clip-path="url(#e093eaf4bb)"><g clip-path="url(#06d54bbf4e)"><path fill="#d3ff66" d="M 0.925781 43.0625 L 117.851562 0.941406 L 159.972656 117.871094 L 43.042969 159.988281 Z M 0.925781 43.0625 " fill-opacity="1" fill-rule="nonzero"/></g></g></g></g></g></g><g mask="url(#5d37bb7475)"><g transform="matrix(1, 0, 0, 1, 798, 81)"><g clip-path="url(#e8f81b1071)"><g clip-path="url(#ef485eeacb)"><g clip-path="url(#5cd98abf4c)"><g transform="matrix(1, 0, 0, 1, -0.000000000000113687, -0.000000000000014211)"><g clip-path="url(#e8c21e9dcc)"><g clip-path="url(#4a60118767)"><g clip-path="url(#ee59db43d1)"><path fill="#000000" d="M 0.925781 43.0625 L 117.875 0.9375 L 125.964844 23.394531 L 9.015625 65.519531 Z M 0.925781 43.0625 " fill-opacity="1" fill-rule="nonzero"/></g></g></g></g></g></g></g></g></g><g clip-path="url(#c9f85137ad)"><g clip-path="url(#775a6c3f2b)"><g transform="matrix(1, 0, 0, 1, 874, 86)"><g clip-path="url(#f6112a01f7)"><g clip-path="url(#55478efff1)"><g clip-path="url(#166b7ca1fc)"><path fill="#66ffe8" d="M 55.828125 0.414062 L 167.222656 55.53125 L 112.105469 166.921875 L 0.714844 111.804688 Z M 55.828125 0.414062 " fill-opacity="1" fill-rule="nonzero"/></g></g></g></g></g></g><g mask="url(#31ef667214)"><g transform="matrix(1, 0, 0, 1, 919, 86)"><g clip-path="url(#2c0874e85b)"><g clip-path="url(#0f8839ce14)"><g clip-path="url(#cda3c1bf85)"><g transform="matrix(1, 0, 0, 1, -0.000000000000113687, -0.000000000000014211)"><g clip-path="url(#546c622c24)"><g clip-path="url(#c79be8dd2c)"><g clip-path="url(#ee0577c911)"><path fill="#000000" d="M 10.832031 0.414062 L 122.203125 55.519531 L 112.335938 75.457031 L 0.964844 20.351562 Z M 10.832031 0.414062 " fill-opacity="1" fill-rule="nonzero"/></g></g></g></g></g></g></g></g></g><g mask="url(#02d8817dd7)"><g transform="matrix(1, 0, 0, 1, 576, 73)"><g clip-path="url(#6e048431d0)"><g clip-path="url(#2bdc95f4f7)"><g clip-path="url(#95588c5194)"><g transform="matrix(1, 0, 0, 1, -0.000000000000113687, -0.000000000000014211)"><g clip-path="url(#16bd894288)"><g clip-path="url(#f965a7e793)"><g clip-path="url(#4527fa434d)"><path fill="#000000" d="M 82.941406 0.746094 L 98.1875 14.265625 L 15.742188 107.214844 L 0.496094 93.695312 Z M 82.941406 0.746094 " fill-opacity="1" fill-rule="nonzero"/></g></g></g></g></g></g></g></g></g><g mask="url(#22ca7a7d47)"><g transform="matrix(1, 0, 0, 1, 474, 99)"><g clip-path="url(#f571b945ce)"><g clip-path="url(#d2338b508a)"><g clip-path="url(#b8dddeb916)"><g transform="matrix(1, 0, 0, 1, -0.000000000000113687, -0.000000000000028422)"><g clip-path="url(#251961dbe0)"><g clip-path="url(#33c57925e0)"><g clip-path="url(#7e065a0570)"><path fill="#000000" d="M 0.621094 46 L 116.355469 0.742188 L 123.933594 20.117188 L 8.199219 65.375 Z M 0.621094 46 " fill-opacity="1" fill-rule="nonzero"/></g></g></g></g></g></g></g></g></g><g clip-path="url(#da6c07f1ce)"><g clip-path="url(#832c494ab7)"><g transform="matrix(1, 0, 0, 1, 950, 107)"><g clip-path="url(#9ff6147cb0)"><g clip-path="url(#40ed5686ca)"><g clip-path="url(#2d9bac9742)"><path fill="#d9d9d9" d="M 0.746094 46.199219 L 116.492188 0.9375 L 161.753906 116.683594 L 46.007812 161.945312 Z M 0.746094 46.199219 " fill-opacity="1" fill-rule="nonzero"/></g></g></g></g></g></g><g clip-path="url(#66fadc97bc)"><g clip-path="url(#080bc2a592)"><g transform="matrix(1, 0, 0, 1, 1051, 81)"><g clip-path="url(#a85b316778)"><g clip-path="url(#241f536cb9)"><g clip-path="url(#ec6d6d308f)"><path fill="#ffdd66" d="M 83.445312 0.945312 L 176.421875 83.414062 L 93.953125 176.390625 L 0.976562 93.921875 Z M 83.445312 0.945312 " fill-opacity="1" fill-rule="nonzero"/></g></g></g></g></g></g><g clip-path="url(#da7ff62617)"><g clip-path="url(#3e36298a10)"><g transform="matrix(1, 0, 0, 1, 1175, 109)"><g clip-path="url(#a638021284)"><g clip-path="url(#73c0a87360)"><g clip-path="url(#3056fd21c9)"><path fill="#ff66a2" d="M 21.679688 0.535156 L 144.199219 21.394531 L 123.34375 143.910156 L 0.824219 123.054688 Z M 21.679688 0.535156 " fill-opacity="1" fill-rule="nonzero"/></g></g></g></g></g></g><g mask="url(#26b48ca8e1)"><g transform="matrix(1, 0, 0, 1, 1192, 108)"><g clip-path="url(#673d27727b)"><g clip-path="url(#b9543fd0df)"><g clip-path="url(#4b3a575161)"><g transform="matrix(1, 0, 0, 1, 1, 1)"><g clip-path="url(#343ba206e2)"><g clip-path="url(#0ee2ea07b4)"><g clip-path="url(#1afc7ebc87)"><path fill="#000000" d="M 4.066406 0.0898438 L 126.550781 20.941406 L 122.683594 43.648438 L 0.199219 22.796875 Z M 4.066406 0.0898438 " fill-opacity="1" fill-rule="nonzero"/></g></g></g></g></g></g></g></g></g><g clip-path="url(#29200d0556)"><g clip-path="url(#d7577e1175)"><g transform="matrix(1, 0, 0, 1, 1274, 90)"><g clip-path="url(#b07a9640c4)"><g clip-path="url(#d1abc5668f)"><g clip-path="url(#be7cf55726)"><path fill="#444444" d="M 0.429688 42.261719 L 117.355469 0.144531 L 159.472656 117.070312 L 42.546875 159.1875 Z M 0.429688 42.261719 " fill-opacity="1" fill-rule="nonzero"/></g></g></g></g></g></g><g mask="url(#df3b4f4aca)"><g transform="matrix(1, 0, 0, 1, 1274, 90)"><g clip-path="url(#e760ee8c8f)"><g clip-path="url(#1c564b6ea6)"><g clip-path="url(#9c37d9a492)"><g transform="matrix(1, 0, 0, 1, 0, -0.000000000000014211)"><g clip-path="url(#b5330a68fb)"><g clip-path="url(#ba0fd62b76)"><g clip-path="url(#2ea333cfb5)"><path fill="#000000" d="M 0.429688 42.261719 L 117.375 0.136719 L 125.464844 22.59375 L 8.519531 64.722656 Z M 0.429688 42.261719 " fill-opacity="1" fill-rule="nonzero"/></g></g></g></g></g></g></g></g></g><g clip-path="url(#4b567b0a39)"><g clip-path="url(#8fa626ce41)"><g transform="matrix(1, 0, 0, 1, 1350, 94)"><g clip-path="url(#50ff4fd595)"><g clip-path="url(#2678db0621)"><g clip-path="url(#1c088b5ce0)"><path fill="#669fff" d="M 55.332031 0.617188 L 166.722656 55.730469 L 111.609375 167.121094 L 0.214844 112.007812 Z M 55.332031 0.617188 " fill-opacity="1" fill-rule="nonzero"/></g></g></g></g></g></g><g clip-path="url(#d7ed5c1ff0)"><g mask="url(#d0a1326933)"><g transform="matrix(1, 0, 0, 1, 1395, 94)"><g clip-path="url(#ccc10b1e91)"><g clip-path="url(#77d9980452)"><g clip-path="url(#5d750c15a6)"><g transform="matrix(1, 0, 0, 1, -0.000000000000227374, -0.000000000000014211)"><g clip-path="url(#b9196fb507)"><g clip-path="url(#c9deb14ee7)"><g clip-path="url(#05f5ea2681)"><path fill="#000000" d="M 10.332031 0.617188 L 121.703125 55.71875 L 111.839844 75.660156 L 0.46875 20.554688 Z M 10.332031 0.617188 " fill-opacity="1" fill-rule="nonzero"/></g></g></g></g></g></g></g></g></g></g><g mask="url(#629eadfc63)"><g transform="matrix(1, 0, 0, 1, 1051, 81)"><g clip-path="url(#ce6dbe4a12)"><g clip-path="url(#88dde85c58)"><g clip-path="url(#0857e6c80d)"><g transform="matrix(1, 0, 0, 1, -0.000000000000454747, -0.000000000000014211)"><g clip-path="url(#22e01f33c7)"><g clip-path="url(#485adc9a53)"><g clip-path="url(#a8c0be5a09)"><path fill="#000000" d="M 83.445312 0.945312 L 98.6875 14.464844 L 16.242188 107.414062 L 1 93.894531 Z M 83.445312 0.945312 " fill-opacity="1" fill-rule="nonzero"/></g></g></g></g></g></g></g></g></g><g mask="url(#219e0d1fd5)"><g transform="matrix(1, 0, 0, 1, 950, 107)"><g clip-path="url(#1519d37627)"><g clip-path="url(#b8d2c6438d)"><g clip-path="url(#aae5385b6a)"><g transform="matrix(1, 0, 0, 1, -0.000000000000227374, -0.000000000000028422)"><g clip-path="url(#315dbbfcc5)"><g clip-path="url(#fb7b838947)"><g clip-path="url(#da2262e886)"><path fill="#000000" d="M 0.121094 46.199219 L 115.855469 0.941406 L 123.433594 20.320312 L 7.699219 65.574219 Z M 0.121094 46.199219 " fill-opacity="1" fill-rule="nonzero"/></g></g></g></g></g></g></g></g></g></svg>